<mxfile host="app.diagrams.net" agent="Mozilla/5.0 (Windows NT 10.0; Win64; x64) AppleWebKit/537.36 (KHTML, like Gecko) Chrome/136.0.0.0 Safari/537.36 Edg/136.0.0.0" version="27.0.8">
  <diagram name="第 1 页" id="uZ4YPI7L-OdHylHuJqoD">
    <mxGraphModel dx="1123" dy="626" grid="1" gridSize="10" guides="1" tooltips="1" connect="1" arrows="1" fold="1" page="1" pageScale="1" pageWidth="1000" pageHeight="1000" math="0" shadow="0">
      <root>
        <mxCell id="0" />
        <mxCell id="1" parent="0" />
        <mxCell id="HycocPA3Oym_0WoCJj4u-24" value="Reducible" style="text;html=1;align=center;verticalAlign=middle;whiteSpace=wrap;rounded=0;" vertex="1" parent="1">
          <mxGeometry x="74" y="180" width="60" height="20" as="geometry" />
        </mxCell>
        <mxCell id="HycocPA3Oym_0WoCJj4u-27" style="edgeStyle=orthogonalEdgeStyle;rounded=0;orthogonalLoop=1;jettySize=auto;html=1;exitX=1;exitY=0.5;exitDx=0;exitDy=0;entryX=0;entryY=0.5;entryDx=0;entryDy=0;" edge="1" parent="1" source="HycocPA3Oym_0WoCJj4u-25" target="HycocPA3Oym_0WoCJj4u-26">
          <mxGeometry relative="1" as="geometry" />
        </mxCell>
        <mxCell id="HycocPA3Oym_0WoCJj4u-51" style="edgeStyle=orthogonalEdgeStyle;rounded=0;orthogonalLoop=1;jettySize=auto;html=1;exitX=1;exitY=1;exitDx=0;exitDy=0;entryX=0;entryY=0.5;entryDx=0;entryDy=0;curved=1;" edge="1" parent="1" source="HycocPA3Oym_0WoCJj4u-25" target="HycocPA3Oym_0WoCJj4u-48">
          <mxGeometry relative="1" as="geometry" />
        </mxCell>
        <mxCell id="HycocPA3Oym_0WoCJj4u-25" value="1" style="ellipse;whiteSpace=wrap;html=1;" vertex="1" parent="1">
          <mxGeometry x="50" y="120" width="30" height="30" as="geometry" />
        </mxCell>
        <mxCell id="HycocPA3Oym_0WoCJj4u-26" value="2" style="ellipse;whiteSpace=wrap;html=1;" vertex="1" parent="1">
          <mxGeometry x="130" y="120" width="30" height="30" as="geometry" />
        </mxCell>
        <mxCell id="HycocPA3Oym_0WoCJj4u-28" value="Irreducible" style="text;html=1;align=center;verticalAlign=middle;whiteSpace=wrap;rounded=0;" vertex="1" parent="1">
          <mxGeometry x="73" y="90" width="60" height="20" as="geometry" />
        </mxCell>
        <mxCell id="HycocPA3Oym_0WoCJj4u-34" style="edgeStyle=orthogonalEdgeStyle;rounded=0;orthogonalLoop=1;jettySize=auto;html=1;exitX=0.5;exitY=0;exitDx=0;exitDy=0;entryX=0.5;entryY=0;entryDx=0;entryDy=0;curved=1;" edge="1" parent="1" source="HycocPA3Oym_0WoCJj4u-30" target="HycocPA3Oym_0WoCJj4u-31">
          <mxGeometry relative="1" as="geometry" />
        </mxCell>
        <mxCell id="HycocPA3Oym_0WoCJj4u-30" value="1" style="ellipse;whiteSpace=wrap;html=1;" vertex="1" parent="1">
          <mxGeometry x="50" y="40" width="30" height="30" as="geometry" />
        </mxCell>
        <mxCell id="HycocPA3Oym_0WoCJj4u-35" style="edgeStyle=orthogonalEdgeStyle;rounded=0;orthogonalLoop=1;jettySize=auto;html=1;exitX=0.5;exitY=1;exitDx=0;exitDy=0;entryX=0.5;entryY=1;entryDx=0;entryDy=0;curved=1;" edge="1" parent="1" source="HycocPA3Oym_0WoCJj4u-31" target="HycocPA3Oym_0WoCJj4u-30">
          <mxGeometry relative="1" as="geometry" />
        </mxCell>
        <mxCell id="HycocPA3Oym_0WoCJj4u-31" value="2" style="ellipse;whiteSpace=wrap;html=1;" vertex="1" parent="1">
          <mxGeometry x="130" y="40" width="30" height="30" as="geometry" />
        </mxCell>
        <mxCell id="HycocPA3Oym_0WoCJj4u-36" style="edgeStyle=orthogonalEdgeStyle;rounded=0;orthogonalLoop=1;jettySize=auto;html=1;exitX=0;exitY=1;exitDx=0;exitDy=0;entryX=0;entryY=0;entryDx=0;entryDy=0;curved=1;" edge="1" parent="1" source="HycocPA3Oym_0WoCJj4u-30" target="HycocPA3Oym_0WoCJj4u-30">
          <mxGeometry relative="1" as="geometry">
            <Array as="points">
              <mxPoint x="30" y="66" />
              <mxPoint x="30" y="44" />
            </Array>
          </mxGeometry>
        </mxCell>
        <mxCell id="HycocPA3Oym_0WoCJj4u-37" style="edgeStyle=orthogonalEdgeStyle;rounded=0;orthogonalLoop=1;jettySize=auto;html=1;exitX=1;exitY=0;exitDx=0;exitDy=0;entryX=1;entryY=1;entryDx=0;entryDy=0;curved=1;" edge="1" parent="1" source="HycocPA3Oym_0WoCJj4u-31" target="HycocPA3Oym_0WoCJj4u-31">
          <mxGeometry relative="1" as="geometry">
            <Array as="points">
              <mxPoint x="180" y="44" />
              <mxPoint x="180" y="66" />
            </Array>
          </mxGeometry>
        </mxCell>
        <mxCell id="HycocPA3Oym_0WoCJj4u-38" style="edgeStyle=orthogonalEdgeStyle;rounded=0;orthogonalLoop=1;jettySize=auto;html=1;exitX=0;exitY=1;exitDx=0;exitDy=0;entryX=0;entryY=0;entryDx=0;entryDy=0;curved=1;" edge="1" parent="1" source="HycocPA3Oym_0WoCJj4u-25" target="HycocPA3Oym_0WoCJj4u-25">
          <mxGeometry relative="1" as="geometry">
            <Array as="points">
              <mxPoint x="30" y="146" />
              <mxPoint x="30" y="124" />
            </Array>
          </mxGeometry>
        </mxCell>
        <mxCell id="HycocPA3Oym_0WoCJj4u-39" style="edgeStyle=orthogonalEdgeStyle;rounded=0;orthogonalLoop=1;jettySize=auto;html=1;exitX=1;exitY=1;exitDx=0;exitDy=0;entryX=1;entryY=0;entryDx=0;entryDy=0;curved=1;" edge="1" parent="1" source="HycocPA3Oym_0WoCJj4u-26" target="HycocPA3Oym_0WoCJj4u-26">
          <mxGeometry relative="1" as="geometry">
            <Array as="points">
              <mxPoint x="180" y="146" />
              <mxPoint x="180" y="124" />
            </Array>
          </mxGeometry>
        </mxCell>
        <mxCell id="HycocPA3Oym_0WoCJj4u-40" value="0.2" style="text;html=1;align=center;verticalAlign=middle;whiteSpace=wrap;rounded=0;" vertex="1" parent="1">
          <mxGeometry x="85.5" y="22" width="37" height="10" as="geometry" />
        </mxCell>
        <mxCell id="HycocPA3Oym_0WoCJj4u-41" value="0.7" style="text;html=1;align=center;verticalAlign=middle;whiteSpace=wrap;rounded=0;" vertex="1" parent="1">
          <mxGeometry x="85.5" y="78" width="37" height="10" as="geometry" />
        </mxCell>
        <mxCell id="HycocPA3Oym_0WoCJj4u-42" value="0.3" style="text;html=1;align=center;verticalAlign=middle;whiteSpace=wrap;rounded=0;" vertex="1" parent="1">
          <mxGeometry x="180" y="50" width="20" height="10" as="geometry" />
        </mxCell>
        <mxCell id="HycocPA3Oym_0WoCJj4u-43" value="0.8" style="text;html=1;align=center;verticalAlign=middle;whiteSpace=wrap;rounded=0;" vertex="1" parent="1">
          <mxGeometry x="10" y="50" width="20" height="10" as="geometry" />
        </mxCell>
        <mxCell id="HycocPA3Oym_0WoCJj4u-45" value="0.8" style="text;html=1;align=center;verticalAlign=middle;whiteSpace=wrap;rounded=0;" vertex="1" parent="1">
          <mxGeometry x="10" y="130" width="20" height="10" as="geometry" />
        </mxCell>
        <mxCell id="HycocPA3Oym_0WoCJj4u-46" value="0.1" style="text;html=1;align=center;verticalAlign=middle;whiteSpace=wrap;rounded=0;" vertex="1" parent="1">
          <mxGeometry x="82.5" y="124" width="37" height="10" as="geometry" />
        </mxCell>
        <mxCell id="HycocPA3Oym_0WoCJj4u-47" value="1" style="text;html=1;align=center;verticalAlign=middle;whiteSpace=wrap;rounded=0;" vertex="1" parent="1">
          <mxGeometry x="180" y="130" width="20" height="10" as="geometry" />
        </mxCell>
        <mxCell id="HycocPA3Oym_0WoCJj4u-48" value="3" style="ellipse;whiteSpace=wrap;html=1;" vertex="1" parent="1">
          <mxGeometry x="130" y="160" width="30" height="30" as="geometry" />
        </mxCell>
        <mxCell id="HycocPA3Oym_0WoCJj4u-49" style="edgeStyle=orthogonalEdgeStyle;rounded=0;orthogonalLoop=1;jettySize=auto;html=1;exitX=1;exitY=1;exitDx=0;exitDy=0;entryX=1;entryY=0;entryDx=0;entryDy=0;curved=1;" edge="1" parent="1" source="HycocPA3Oym_0WoCJj4u-48" target="HycocPA3Oym_0WoCJj4u-48">
          <mxGeometry relative="1" as="geometry">
            <Array as="points">
              <mxPoint x="180" y="186" />
              <mxPoint x="180" y="164" />
            </Array>
          </mxGeometry>
        </mxCell>
        <mxCell id="HycocPA3Oym_0WoCJj4u-50" value="1" style="text;html=1;align=center;verticalAlign=middle;whiteSpace=wrap;rounded=0;" vertex="1" parent="1">
          <mxGeometry x="180" y="170" width="20" height="10" as="geometry" />
        </mxCell>
        <mxCell id="HycocPA3Oym_0WoCJj4u-52" value="0.1" style="text;html=1;align=center;verticalAlign=middle;whiteSpace=wrap;rounded=0;" vertex="1" parent="1">
          <mxGeometry x="76" y="155" width="37" height="10" as="geometry" />
        </mxCell>
      </root>
    </mxGraphModel>
  </diagram>
</mxfile>
